<svg xmlns="http://www.w3.org/2000/svg" xmlns:xlink="http://www.w3.org/1999/xlink" xmlns:inkscape="http://www.inkscape.org/namespaces/inkscape" version="1.1" width="253.333" height="318" viewBox="0 0 253.333 318">
<defs>
<clipPath id="clip_1">
<path transform="matrix(1,0,0,-1,0,318)" d="M0 318H253.333V0H0Z"/>
</clipPath>
</defs>
<g inkscape:groupmode="layer" inkscape:label="Layer 1">
<path transform="matrix(1,0,0,-1,179.7573,170.8501)" stroke-width="1" stroke-linecap="square" stroke-miterlimit="3.25" stroke-linejoin="miter" fill="none" stroke="#ff7e00" d="M0 0-2.828-2.829"/>
<path transform="matrix(1,0,0,-1,172.6704,177.937)" stroke-width="1" stroke-linecap="square" stroke-dasharray="8.03,6.022" stroke-miterlimit="3.25" stroke-linejoin="miter" fill="none" stroke="#ff7e00" d="M0 0-107.171-107.171"/>
<path transform="matrix(1,0,0,-1,63.3706,287.2368)" stroke-width="1" stroke-linecap="square" stroke-miterlimit="3.25" stroke-linejoin="miter" fill="none" stroke="#ff7e00" d="M0 0-2.829-2.829"/>
<path transform="matrix(1,0,0,-1,179.4106,170.5034)" stroke-width="1" stroke-linecap="square" stroke-miterlimit="3.25" stroke-linejoin="miter" fill="none" stroke="#ff7e00" d="M0 0-2.828 2.829"/>
<path transform="matrix(1,0,0,-1,172.3286,163.4219)" stroke-width="1" stroke-linecap="square" stroke-dasharray="8.02,6.015" stroke-miterlimit="3.25" stroke-linejoin="miter" fill="none" stroke="#ff7e00" d="M0 0-107.04 107.039"/>
<path transform="matrix(1,0,0,-1,63.1626,54.256288)" stroke-width="1" stroke-linecap="square" stroke-miterlimit="3.25" stroke-linejoin="miter" fill="none" stroke="#ff7e00" d="M0 0-2.829 2.829"/>
<path transform="matrix(1,0,0,-1,16.1665,170.7476)" stroke-width="1" stroke-linecap="butt" stroke-miterlimit="10" stroke-linejoin="miter" fill="none" stroke="#00b400" d="M0 0H201.888"/>
<g clip-path="url(#clip_1)">
<path transform="matrix(1,0,0,-1,216.2593,170.7476)" d="M0 0-2.191 3.603-2.068 3.685 3.807 1.351C5.854 .901 7.9 .451 9.947 0 7.9-.45 5.854-.9 3.807-1.351L-2.068-3.685-2.191-3.623Z" fill="#00b400"/>
<path transform="matrix(1,0,0,-1,60.4673,12.691895)" stroke-width="1" stroke-linecap="butt" stroke-miterlimit="10" stroke-linejoin="miter" fill="none" stroke="#00b400" d="M0 0V-302.231"/>
<path transform="matrix(1,0,0,-1,60.4673,14.486786)" d="M0 0 3.603-2.191 3.685-2.068 1.351 3.807C.901 5.854 .451 7.9 0 9.947-.45 7.9-.9 5.854-1.351 3.807L-3.685-2.068-3.623-2.191Z" fill="#00b400"/>
<path transform="matrix(1,0,0,-1,64.4175,292.0049)" d="M0 0C-1.07-2.14-3.673-3.008-5.814-1.937-7.955-.867-8.822 1.736-7.752 3.877-6.682 6.018-4.079 6.885-1.938 5.814 .203 4.744 1.07 2.141 0 0"/>
<path transform="matrix(1,0,0,-1,64.4185,172.6865)" d="M0 0C-1.07-2.14-3.673-3.008-5.813-1.937-7.955-.867-8.822 1.736-7.752 3.877-6.682 6.018-4.079 6.885-1.938 5.814 .202 4.744 1.07 2.141 0 0"/>
<path transform="matrix(1,0,0,-1,64.209,53.368196)" d="M0 0C-1.07-2.14-3.673-3.008-5.814-1.937-7.955-.867-8.822 1.736-7.752 3.877-6.682 6.018-4.079 6.885-1.938 5.814 .203 4.744 1.07 2.141 0 0"/>
<path transform="matrix(1,0,0,-1,118.9067,231.7002)" stroke-width="1" stroke-linecap="square" stroke-dasharray="1.568" stroke-miterlimit="3.25" stroke-linejoin="miter" fill="none" stroke="#ff7e00" d="M0 0-1.108-1.108"/>
<path transform="matrix(1,0,0,-1,117.6377,232.96921)" d="M0 0 .998-4.097 1.143-4.068 3.647 1.736C4.776 3.502 5.905 5.268 7.034 7.034 5.268 5.905 3.502 4.775 1.736 3.647L-4.068 1.143-4.111 1.012Z" fill="#ff7e00"/>
<path transform="matrix(1,0,0,-1,120.8472,111.938)" stroke-width="1" stroke-linecap="square" stroke-dasharray="1.568" stroke-miterlimit="3.25" stroke-linejoin="miter" fill="none" stroke="#ff7e00" d="M0 0 1.108-1.108"/>
<path transform="matrix(1,0,0,-1,122.1167,113.207)" d="M0 0 4.097 .998 4.067 1.143-1.736 3.647C-3.502 4.776-5.269 5.905-7.034 7.034-5.905 5.268-4.776 3.502-3.647 1.736L-1.144-4.068-1.013-4.111Z" fill="#ff7e00"/>
<path transform="matrix(1,0,0,-1,47.7622,284.5952)" d="M0 0C-.06-.225-.06-.314-.06-.344-.06-.538-.015-.598 .418-.643 .792-.673 .867-.673 1.195-.673 1.539-.673 1.568-.673 1.613-.687 1.613-.702 1.703-.732 1.703-.852 1.703-1.136 1.524-1.136 1.389-1.136 .896-1.136-.344-1.091-.836-1.091-1.27-1.091-2.375-1.136-2.809-1.136-2.853-1.136-3.032-1.136-3.032-.956-3.032-.673-2.868-.673-2.614-.673-1.434-.673-1.404-.553-1.255 .029L.717 7.932C.792 8.201 .792 8.23 .792 8.291 .792 8.559 .374 8.559-.179 8.559-.463 8.559-.598 8.559-.598 8.724-.598 9.022-.448 9.022-.149 9.022H7.17C7.544 9.022 7.619 9.022 7.574 8.619L7.275 6.035C7.245 5.751 7.23 5.661 7.066 5.661 6.932 5.661 6.887 5.766 6.887 5.84 6.887 5.885 6.887 5.915 6.917 6.109 6.961 6.513 6.961 6.572 6.961 6.916 6.961 8.066 6.618 8.559 4.78 8.559H2.809C2.151 8.559 2.136 8.5 2.002 7.977L1.046 4.183H2.405C3.675 4.183 4.019 4.451 4.332 5.616 4.392 5.855 4.407 5.93 4.556 5.93 4.706 5.93 4.735 5.796 4.735 5.766 4.735 5.721 4.735 5.691 4.691 5.527L3.869 2.285C3.794 2.017 3.794 1.972 3.645 1.972 3.555 1.972 3.466 2.031 3.466 2.15 3.466 2.181 3.48 2.24 3.511 2.315 3.615 2.763 3.615 2.942 3.615 3.047 3.615 3.48 3.496 3.719 2.375 3.719H.926Z" fill="#231f20"/>
<path transform="matrix(1,0,0,-1,51.4165,45.083498)" d="M0 0C-.06-.254-.075-.299-.224-.299-.403-.299-.403-.165-.403-.149-.403-.06-.344 .209-.344 .687-.344 2.36-1.255 3.002-2.495 3.002-3.914 3.002-5.109 1.733-5.109 .522-5.109-.269-4.601-.702-4.198-.837-4.063-.867-3.525-1.016-3.197-1.105-1.867-1.449-1.643-1.509-1.3-1.853-1.076-2.062-.568-2.57-.568-3.6-.568-5.453-2.331-7.44-4.362-7.44-5.229-7.44-6.244-7.23-6.887-6.364L-7.619-7.215C-7.798-7.424-7.813-7.44-7.888-7.44-7.977-7.44-8.052-7.379-8.052-7.291-8.052-7.246-7.215-3.839-7.156-3.78-7.111-3.735-7.081-3.72-7.006-3.72-6.932-3.72-6.827-3.735-6.827-3.884-6.827-3.914-6.842-3.929-6.857-3.989-6.872-4.079-6.946-4.437-6.946-4.795-6.946-6.648-5.288-6.976-4.332-6.976-2.868-6.976-1.643-5.572-1.643-4.228-1.643-3.002-2.465-2.779-3.018-2.644L-4.616-2.226C-5.378-2.001-6.169-1.315-6.169-.105-6.169 1.703-4.377 3.421-2.48 3.421-1.509 3.421-.732 3.047-.344 2.345L.374 3.197C.553 3.406 .567 3.421 .642 3.421 .777 3.421 .807 3.316 .807 3.271Z" fill="#231f20"/>
<path transform="matrix(1,0,0,-1,52.3989,164.1138)" d="M0 0C1.479 1.837 1.882 4.167 1.882 5.243 1.882 7.469 .538 8.306-.687 8.306-1.868 8.306-3.332 7.529-4.362 5.975-5.512 4.228-5.722 2.046-5.722 1.389-5.722-.583-4.676-1.793-3.197-1.793-1.942-1.793-.717-.911 0 0M-3.287-2.182C-5.437-2.182-7.111-.673-7.111 1.808-7.111 5.288-3.824 8.679-.598 8.679 1.628 8.679 3.211 7.065 3.211 4.661 3.211 1.09-.12-2.182-3.287-2.182" fill="#231f20"/>
<path transform="matrix(1,0,0,-1,47.0215,14.519501)" d="M0 0C-.06-.254-.09-.358-.09-.717-.09-1.21 .061-1.404 .373-1.404 .881-1.404 1.674-1.046 2.315 .508 2.391 .673 2.405 .717 2.539 .717 2.6 .717 2.719 .717 2.719 .567 2.719 .448 1.867-1.732 .344-1.732-.463-1.732-1.031-1.165-1.031-.358-1.031-.09-.971 .164 .105 4.407H-1.21C-1.509 4.407-1.628 4.407-1.628 4.586-1.628 4.87-1.479 4.87-1.18 4.87H.225L.807 7.245C.941 7.768 1.359 7.783 1.404 7.783 1.658 7.783 1.838 7.634 1.838 7.38 1.838 7.29 1.763 6.991 1.225 4.87H2.539C2.809 4.87 2.958 4.87 2.958 4.706 2.958 4.407 2.809 4.407 2.51 4.407H1.105Z" fill="#231f20"/>
<path transform="matrix(1,0,0,-1,51.5195,9.337891)" d="M0 0C-.042-.104-.073-.157-.157-.157-.24-.157-.565-.052-.565 .074-.565 .094-.523 .22-.514 .251L.879 4.784C.921 4.92 1.025 5.266 1.444 5.266 1.779 5.266 2.063 5.014 2.063 4.689 2.063 4.543 2.02 4.47 1.979 4.365Z" fill="#231f20"/>
<path transform="matrix(1,0,0,-1,189.1499,182.8003)" d="M0 0C1.823 0 3.107 1.419 3.107 2.734 3.107 3.391 2.794 4.272 1.479 4.272H-.448C-1.091 4.272-1.12 4.228-1.255 3.705L-2.181 0ZM-.821-5.004C.941-5.004 2.271-3.555 2.271-2.077 2.271-1.434 1.987-.329 .553-.329H-2.271L-3.302-4.497C-3.376-4.765-3.376-4.795-3.376-4.84-3.376-4.959-3.331-4.974-3.182-4.989-3.093-5.004-3.062-5.004-2.853-5.004ZM-2.435 3.72C-2.39 3.899-2.375 3.944-2.375 4.003-2.375 4.198-2.509 4.213-2.778 4.243-3.032 4.272-3.315 4.272-3.347 4.272-3.63 4.272-3.765 4.272-3.765 4.437-3.765 4.736-3.614 4.736-3.331 4.736H1.688C3.481 4.736 4.467 3.78 4.467 2.674 4.467 1.255 2.898 .149 1.345-.134 2.794-.298 3.66-1.165 3.66-2.241 3.66-3.705 1.897-5.467-.463-5.467H-5.796C-6.065-5.467-6.199-5.467-6.199-5.303-6.199-5.004-6.05-5.004-5.796-5.004-4.616-5.004-4.586-4.884-4.437-4.302Z" fill="#231f20"/>
<path transform="matrix(1,0,0,-1,234.5015,172.1802)" d="M0 0C-.164-.657-.254-.986-.254-1.314-.254-1.822-.015-2.301 .567-2.301 1.046-2.301 2.062-1.942 2.555-.344 2.585-.239 2.614-.18 2.749-.18 2.794-.18 2.928-.18 2.928-.329 2.928-.702 2.077-2.629 .538-2.629-.358-2.629-.896-2.047-1.075-1.494-1.12-1.583-1.658-2.629-2.644-2.629-3.302-2.629-4.048-2.33-4.048-1.644-4.048-1.165-3.675-.776-3.227-.776-3.003-.776-2.674-.896-2.674-1.3-2.674-1.718-3.003-2.031-3.376-2.106-3.063-2.301-2.719-2.301-2.629-2.301-1.972-2.301-1.448-1.673-1.21-.747-.657 1.345-.403 2.346-.403 2.809-.403 3.675-.927 3.809-1.21 3.809-1.718 3.809-2.704 3.436-3.212 1.853-3.241 1.718-3.286 1.688-3.405 1.688-3.436 1.688-3.585 1.688-3.585 1.838-3.585 2.211-2.733 4.138-1.181 4.138-.747 4.138 .06 3.988 .433 3.002 .612 3.346 1.136 4.138 2.002 4.138 2.51 4.138 3.392 3.929 3.392 3.152 3.392 2.555 2.913 2.285 2.585 2.285 2.181 2.285 2.017 2.569 2.017 2.809 2.017 3.167 2.315 3.541 2.733 3.615 2.42 3.809 2.062 3.809 1.987 3.809 .941 3.809 .598 2.435 .508 2.047Z" fill="#231f20"/>
<path transform="matrix(1,0,0,-1,239.6118,167.895)" d="M0 0C-.043-.104-.074-.157-.158-.157-.241-.157-.566-.052-.566 .074-.566 .094-.523 .22-.514 .251L.879 4.784C.92 4.92 1.025 5.266 1.443 5.266 1.779 5.266 2.062 5.014 2.062 4.689 2.062 4.543 2.02 4.47 1.978 4.365Z" fill="#231f20"/>
<path transform="matrix(1,0,0,-1,107.4292,265.0015)" d="M0 0-5.503-5.503-5.831-5.176-5.577-4.923C-4.764-4.109-4.858-3.972-5.239-3.592L-10.806 1.975C-11.187 2.355-11.323 2.451-12.138 1.637L-12.391 1.384-12.718 1.711C-12.317 2.049-11.493 2.873-11.081 3.285-10.647 3.718-9.687 4.679-9.338 5.092L-9.011 4.764-9.359 4.415C-10.362 3.412-10.214 3.264-9.855 2.905L-4.226-2.725C-3.876-3.074-3.781-3.127-3.285-2.631L-2.419-1.765C-.56 .095-1.732 1.562-2.694 2.757L-2.43 3.021Z" fill="#231f20"/>
<path transform="matrix(1,0,0,-1,103.5864,256.95069)" d="M0 0C-.327-.327-.834-.285-1.119 0-1.395 .275-1.447 .792-1.119 1.12-.824 1.416-.338 1.458 0 1.12 .338 .782 .296 .296 0 0M5.672-4.637C6.084-5.049 6.18-5.06 6.877-4.362L7.204-4.689C6.834-5.039 6.443-5.387 6.074-5.756 5.82-6.01 5.271-6.602 4.943-6.95L4.617-6.623C5.324-5.916 5.44-5.799 4.965-5.323L2.123-2.482C1.605-1.964 1.447-1.996 .76-2.682L.434-2.355 1.795-.76Z" fill="#231f20"/>
<path transform="matrix(1,0,0,-1,111.9722,255.98)" d="M0 0C-.105 .423-.434 .771-.719 1.057-.962 1.299-2.019 2.356-2.937 1.437-3.359 1.015-3.307 .476-3.265 .264-3.158-.158-2.831-.506-2.546-.792-2.304-1.035-1.247-2.091-.327-1.172 .095-.75 .042-.211 0 0M4.404-1.742C3.497-.834 2.313-2.018 1.405-2.926L.782-3.549C.349-4.046 .338-4.838 .823-5.323 1.384-5.883 2.65-5.693 3.718-4.626 4.753-3.591 4.975-2.313 4.404-1.742M-1.141-2.81C-.803-3.147-.254-3.253 .126-2.958 .212-2.894 .665-2.44 .93-2.176 1.573-1.532 2.187-.919 3.042-.655 3.876-.412 4.563-.802 4.933-1.172 5.757-1.996 5.196-3.633 3.95-4.88 2.661-6.168 1.035-6.634 .274-5.873-.147-5.451-.264-4.658 .19-3.845-.349-3.961-.888-3.698-1.216-3.37-1.585-3-1.743-2.461-1.764-2.165-2.25-2.207-2.884-2.038-3.349-1.573-4.161-.76-4.162 .697-3.18 1.68-2.947 1.912-2.472 2.324-1.68 2.419-1.669 3.296-1.268 3.824-1.057 4.035-.645 4.447-.18 4.236 0 4.057 .243 3.813 .116 3.539 .011 3.433-.159 3.264-.423 3.253-.603 3.433-.729 3.56-.792 3.729-.718 3.887-.761 3.866-.813 3.813-.835 3.792-1.024 3.602-1.353 3.169-1.373 2.43-.866 2.451-.307 2.229 .085 1.838 .897 1.025 .897-.433-.085-1.416-.285-1.616-.75-2.018-1.458-2.134-1.427-2.524-1.183-2.767-1.141-2.81" fill="#231f20"/>
<path transform="matrix(1,0,0,-1,120.5825,250.5586)" d="M0 0C.328-.307 .592-.043 1.142 .506L1.469 .179C1.1-.169 .528-.698 .254-.972-.031-1.257-.549-1.817-.908-2.197L-1.234-1.87C-.527-1.163-.411-1.046-.887-.57L-3.348 1.891C-3.95 2.493-4.637 2.947-5.303 2.281-5.979 1.605-6.137 .263-5.038-.835L-3.096-2.778C-2.619-3.254-2.502-3.138-1.795-2.43L-1.468-2.757C-1.838-3.106-2.408-3.634-2.683-3.909-2.968-4.194-3.484-4.754-3.844-5.134L-4.172-4.807C-3.464-4.099-3.348-3.983-3.824-3.507L-9.316 1.985C-9.834 2.503-9.992 2.493-10.731 1.753L-11.059 2.081-9.654 3.717-5.979 .042-5.969 .053C-6.179 .602-6.348 1.701-5.461 2.588-4.848 3.2-4.289 3.338-3.961 3.306-3.253 3.253-2.926 2.926-2.018 2.018Z" fill="#231f20"/>
<path transform="matrix(1,0,0,-1,122.522,247.3311)" d="M0 0C.18-.18 1.141-1.141 1.849-.433 2.24-.042 2.156 .676 1.374 1.458L.793 2.039 1.057 2.303 1.658 1.701C2.335 1.025 2.789-.021 2.039-.771 1.658-1.151 .551-2.007-.75-.707L-3.665 2.208-4.562 1.311-4.795 1.543C-3.803 2.62-4.615 4.067-5.471 4.943L-5.207 5.208-3.264 3.264-1.753 4.775-1.426 4.448-2.937 2.937Z" fill="#231f20"/>
<path transform="matrix(1,0,0,-1,130.2778,239.7451)" d="M0 0C.211-.211 .221-.221 .591-.296 1.309-.444 1.922-.254 2.344 .169 3.126 .951 2.978 2.577 1.699 3.855 .506 5.049-1.067 5.334-1.839 4.563-2.377 4.024-2.588 3.201-2.355 2.355ZM.676-.676 2.45-2.451C2.926-2.926 3.041-2.81 3.749-2.102L4.076-2.43C3.696-2.789 3.137-3.306 2.852-3.591 2.576-3.866 2.049-4.437 1.699-4.807L1.372-4.479C2.08-3.771 2.195-3.655 1.721-3.18L-3.223 1.764C-3.688 2.229-3.825 2.218-4.575 1.468L-4.902 1.795-3.497 3.433-2.8 2.736C-2.821 3.179-2.843 4.087-2.018 4.912-.836 6.095 1.234 6.073 2.576 4.732 3.939 3.369 3.876 1.237 2.618-.021 1.816-.823 .801-.697 .58-.581Z" fill="#231f20"/>
<path transform="matrix(1,0,0,-1,138.3794,234.2822)" d="M0 0C-1.605-1.606-2.566-.646-3.391 .178L-4.975 1.762C-5.916 2.703-5.947 2.735-6.77 1.912L-7.098 2.239-5.661 3.908-2.154 .401C-1.605-.148-1.066-.604-.18 .284 .592 1.055 .381 2.28-.539 3.199L-2.419 5.08C-2.937 5.597-3.096 5.587-3.834 4.848L-4.161 5.175-2.725 6.844 1.025 3.094C1.543 2.576 1.701 2.586 2.441 3.327L2.769 3 1.362 1.362 .412 2.312C.76 1.351 .592 .591 0 0" fill="#231f20"/>
<path transform="matrix(1,0,0,-1,142.4438,228.3804)" d="M0 0C.477-.476 .592-.36 1.301 .348L1.627 .021C1.227-.359 .687-.856 .424-1.12 .158-1.385-.38-1.966-.717-2.324L-1.045-1.997C-.338-1.29-.222-1.174-.697-.698L-6.189 4.794C-6.707 5.312-6.865 5.302-7.604 4.563L-7.932 4.891-6.527 6.527Z" fill="#231f20"/>
<path transform="matrix(1,0,0,-1,142.5903,224.77051)" d="M0 0C-.518-.052-.982 .074-1.352 .443-1.943 1.035-2.25 2.145-.961 3.434-.803 3.592-.37 4.025 .328 4.131 .337 4.204 .349 4.405 .338 4.479 .348 4.743 .37 4.765 .422 4.817 .539 4.934 .613 4.859 .792 4.68L1.859 3.613C2.061 3.412 2.112 3.36 1.976 3.223 1.953 3.201 1.857 3.105 1.754 3.19 1.404 3.496 .4 4.395-.761 3.233-1.67 2.324-1.511 1.616-1.142 1.247-.529 .634 .316 1.205 1.025 1.68 1.553 2.038 2.049 2.367 2.736 2.377 2.989 2.377 3.623 2.377 4.183 1.817 4.943 1.057 5.164-.137 3.95-1.351 3.729-1.573 3.242-2.038 2.334-2.06 2.345-2.45 2.366-2.471 2.365-2.514 2.365-2.915 2.366-2.935 2.313-2.989 2.196-3.105 2.123-3.031 1.943-2.852L.549-1.458C.359-1.268 .285-1.194 .424-1.056 .528-.951 .581-.982 .75-1.088 1.849-1.785 2.83-2.007 3.719-1.119 4.541-.296 4.489 .497 3.951 1.035 3.189 1.796 2.154 1.099 1.881 .909 .972 .296 .612 .064 0 0" fill="#231f20"/>
<path transform="matrix(1,0,0,-1,149.5259,217.5806)" d="M0 0C-.412 .412-1.943 1.733-3.031 .645-3.391 .286-4.014-.867-2.504-2.504ZM-2.292-2.735C-1.912-3.116-1.214-3.813-.391-4.004 .243-4.151 .982-4.046 1.51-3.518 1.617-3.412 2.566-2.461 1.849-1.003 1.785-.898 1.744-.813 1.838-.719 1.892-.665 1.997-.603 2.103-.708 2.303-.908 3-2.556 1.712-3.844 .496-5.059-1.637-5.144-3.053-3.729-4.373-2.409-4.488-.348-3.264 .877-1.943 2.197-.348 1.743 .697 .697 .919 .476 .887 .444 .655 .212Z" fill="#231f20"/>
<path transform="matrix(1,0,0,-1,98.0688,78.0405)" d="M0 0-5.503 5.503-5.176 5.83-4.923 5.576C-4.109 4.764-3.973 4.857-3.592 5.238L1.975 10.805C2.355 11.186 2.45 11.322 1.637 12.137L1.383 12.39 1.711 12.717C2.049 12.316 2.873 11.492 3.285 11.08 3.718 10.646 4.679 9.686 5.091 9.337L4.764 9.01 4.415 9.357C3.412 10.361 3.264 10.214 2.905 9.854L-2.726 4.225C-3.074 3.875-3.127 3.781-2.63 3.284L-1.765 2.418C.095 .559 1.563 1.731 2.757 2.693L3.021 2.429Z" fill="#231f20"/>
<path transform="matrix(1,0,0,-1,106.1201,74.1987)" d="M0 0C-.328 .328-.285 .835 0 1.12 .274 1.395 .792 1.447 1.12 1.119 1.416 .824 1.458 .338 1.12 0 .781-.338 .296-.296 0 0M-4.637-5.672C-5.049-6.084-5.06-6.18-4.363-6.877L-4.69-7.203C-5.039-6.834-5.387-6.443-5.757-6.073-6.01-5.82-6.602-5.271-6.95-4.943L-6.623-4.616C-5.916-5.324-5.799-5.439-5.324-4.965L-2.483-2.123C-1.965-1.605-1.997-1.447-2.683-.76L-2.356-.434-.761-1.796Z" fill="#231f20"/>
<path transform="matrix(1,0,0,-1,107.0903,82.583499)" d="M0 0C.422 .104 .771 .433 1.056 .718 1.299 .961 2.355 2.018 1.437 2.936 1.014 3.358 .475 3.306 .264 3.263-.158 3.158-.507 2.83-.792 2.545-1.035 2.303-2.092 1.246-1.173 .326-.75-.096-.211-.043 0 0M-1.743-4.405C-.834-3.497-2.018-2.314-2.926-1.405L-3.549-.782C-4.046-.35-4.838-.339-5.324-.824-5.884-1.385-5.693-2.652-4.626-3.719-3.591-4.754-2.313-4.976-1.743-4.405M-2.81 1.14C-3.148 .802-3.253 .253-2.958-.127-2.895-.213-2.44-.666-2.176-.931-1.532-1.574-.919-2.188-.655-3.043-.412-3.877-.802-4.563-1.172-4.934-1.997-5.758-3.634-5.197-4.88-3.951-6.169-2.662-6.633-1.036-5.873-.275-5.451 .146-4.658 .264-3.845-.19-3.961 .348-3.697 .887-3.369 1.215-3 1.584-2.461 1.742-2.166 1.763-2.207 2.25-2.039 2.883-1.574 3.348-.761 4.16 .697 4.16 1.679 3.179 1.912 2.946 2.324 2.471 2.419 1.679 3.295 1.668 3.824 1.267 4.035 1.055 4.447 .644 4.236 .179 4.056-.001 3.813-.244 3.539-.117 3.433-.012 3.264 .158 3.253 .422 3.433 .602 3.56 .729 3.729 .791 3.887 .718 3.866 .76 3.813 .812 3.792 .834 3.602 1.023 3.169 1.352 2.43 1.373 2.451 .865 2.229 .306 1.838-.085 1.025-.898-.433-.898-1.416 .084-1.616 .284-2.018 .75-2.134 1.457-2.524 1.426-2.767 1.183-2.81 1.14" fill="#231f20"/>
<path transform="matrix(1,0,0,-1,112.5112,91.19479)" d="M0 0C-.306-.328-.042-.592 .507-1.141L.18-1.469C-.169-1.1-.697-.527-.972-.254-1.257 .031-1.817 .549-2.197 .908L-1.87 1.235C-1.162 .527-1.046 .412-.57 .887L1.891 3.349C2.493 3.95 2.947 4.637 2.281 5.303 1.605 5.979 .264 6.137-.834 5.038L-2.778 3.095C-3.253 2.619-3.137 2.503-2.429 1.795L-2.756 1.468C-3.106 1.838-3.633 2.408-3.908 2.684-4.193 2.969-4.753 3.485-5.133 3.845L-4.806 4.172C-4.099 3.465-3.982 3.348-3.507 3.824L1.986 9.316C2.503 9.834 2.493 9.992 1.753 10.731L2.081 11.059 3.718 9.654 .042 5.979 .053 5.968C.602 6.179 1.701 6.348 2.588 5.461 3.2 4.848 3.338 4.288 3.306 3.961 3.253 3.253 2.926 2.926 2.018 2.018Z" fill="#231f20"/>
<path transform="matrix(1,0,0,-1,115.7388,93.13429)" d="M0 0C-.179-.18-1.141-1.141-.433-1.849-.042-2.24 .676-2.155 1.458-1.373L2.039-.793 2.304-1.057 1.702-1.659C1.026-2.335-.021-2.789-.771-2.039-1.151-1.658-2.006-.55-.707 .75L2.208 3.665 1.311 4.562 1.543 4.795C2.62 3.803 4.067 4.615 4.944 5.471L5.208 5.207 3.264 3.264 4.775 1.753 4.448 1.426 2.937 2.937Z" fill="#231f20"/>
<path transform="matrix(1,0,0,-1,123.3252,100.889209)" d="M0 0C-.211-.212-.222-.222-.296-.592-.444-1.31-.254-1.923 .168-2.345 .95-3.127 2.577-2.979 3.855-1.7 5.049-.507 5.335 1.066 4.563 1.839 4.024 2.377 3.201 2.587 2.355 2.355ZM-.676-.677-2.451-2.45C-2.926-2.926-2.81-3.042-2.102-3.749L-2.43-4.077C-2.788-3.697-3.307-3.138-3.592-2.853-3.866-2.578-4.437-2.049-4.807-1.7L-4.479-1.372C-3.771-2.081-3.655-2.196-3.18-1.722L1.764 3.222C2.229 3.687 2.218 3.824 1.468 4.574L1.795 4.901 3.433 3.496 2.735 2.799C3.179 2.819 4.087 2.841 4.912 2.017 6.094 .835 6.074-1.235 4.732-2.577 3.37-3.94 1.236-3.877-.021-2.619-.824-1.817-.698-.802-.581-.581Z" fill="#231f20"/>
<path transform="matrix(1,0,0,-1,128.7876,108.9917)" d="M0 0C-1.606 1.605-.645 2.566 .179 3.391L1.763 4.975C2.704 5.915 2.735 5.947 1.912 6.77L2.239 7.098 3.908 5.661 .401 2.154C-.148 1.605-.604 1.066 .285 .179 1.055-.592 2.281-.381 3.2 .538L5.08 2.418C5.598 2.936 5.587 3.095 4.848 3.834L5.175 4.161 6.844 2.725 3.095-1.025C2.577-1.543 2.587-1.701 3.328-2.441L3-2.769 1.362-1.363 2.313-.412C1.351-.76 .591-.592 0 0" fill="#231f20"/>
<path transform="matrix(1,0,0,-1,134.6899,113.0562)" d="M0 0C-.476-.477-.36-.592 .349-1.301L.021-1.627C-.359-1.227-.855-.687-1.119-.424-1.384-.158-1.965 .38-2.323 .717L-1.996 1.045C-1.289 .338-1.173 .222-.698 .697L4.795 6.189C5.312 6.707 5.303 6.865 4.563 7.604L4.891 7.932 6.527 6.527Z" fill="#231f20"/>
<path transform="matrix(1,0,0,-1,138.2993,113.20261)" d="M0 0C-.051 .518 .074 .982 .444 1.352 1.036 1.943 2.146 2.25 3.434 .961 3.593 .803 4.025 .37 4.131-.328 4.204-.338 4.406-.349 4.48-.338 4.743-.348 4.766-.37 4.818-.423 4.934-.539 4.86-.613 4.681-.793L3.613-1.859C3.413-2.061 3.36-2.113 3.224-1.977 3.201-1.953 3.105-1.858 3.191-1.754 3.497-1.404 4.395-.401 3.233 .76 2.324 1.669 1.617 1.511 1.247 1.141 .635 .529 1.205-.317 1.68-1.025 2.039-1.553 2.367-2.05 2.377-2.736 2.379-2.989 2.377-3.623 1.818-4.183 1.058-4.943-.137-5.164-1.351-3.951-1.572-3.729-2.037-3.243-2.059-2.333-2.449-2.346-2.471-2.367-2.514-2.365-2.914-2.366-2.935-2.367-2.988-2.313-3.104-2.197-3.031-2.123-2.852-1.943L-1.457-.549C-1.268-.359-1.193-.285-1.055-.424-.95-.529-.981-.582-1.087-.75-1.785-1.849-2.007-2.83-1.119-3.719-.295-4.542 .498-4.489 1.036-3.951 1.797-3.189 1.1-2.155 .91-1.881 .297-.972 .064-.612 0 0" fill="#231f20"/>
<path transform="matrix(1,0,0,-1,145.4897,120.1382)" d="M0 0C.411 .411 1.733 1.942 .645 3.031 .286 3.39-.866 4.014-2.504 2.504ZM-2.735 2.291C-3.116 1.911-3.813 1.214-4.003 .391-4.151-.244-4.046-.982-3.519-1.511-3.411-1.617-2.462-2.566-1.003-1.849-.897-1.785-.812-1.744-.718-1.838-.665-1.892-.603-1.997-.708-2.104-.908-2.303-2.556-3-3.845-1.712-5.06-.496-5.144 1.637-3.729 3.052-2.409 4.372-.349 4.488 .877 3.264 2.197 1.943 1.743 .348 .697-.697 .476-.92 .444-.888 .212-.656Z" fill="#231f20"/>
<path transform="matrix(1,0,0,-1,192.3579,121.49609)" d="M0 0-8.41 3.271C-8.679 3.376-8.694 3.376-8.694 3.765V6.289H-8.231V5.931C-8.231 4.78-8.067 4.75-7.528 4.75H.344C.882 4.75 1.046 4.78 1.046 5.931V6.289H1.509C1.464 5.736 1.464 4.735 1.464 4.152 1.464 3.57 1.464 2.555 1.509 2.002H1.046V2.36C1.046 3.511 .882 3.54 .344 3.54H-8.231V3.525L1.225-.149C1.39-.209 1.509-.254 1.509-.418 1.509-.567 1.374-.643 1.18-.717L-8.111-4.317V-4.332H-.06C.344-4.332 1.046-4.332 1.046-2.794H1.509C1.494-3.316 1.464-4.048 1.464-4.541 1.464-5.034 1.494-5.767 1.509-6.289H1.046C1.046-4.75 .344-4.75-.06-4.75H-7.528C-8.067-4.75-8.231-4.78-8.231-5.931V-6.289H-8.694V-3.765C-8.694-3.421-8.694-3.376-8.365-3.241Z" fill="#231f20"/>
<path transform="matrix(1,0,0,-1,185.4565,112.712909)" d="M0 0C0-.463-.389-.792-.792-.792-1.18-.792-1.584-.463-1.584 0-1.584 .418-1.27 .792-.792 .792-.314 .792 0 .418 0 0M7.29 .732C7.872 .732 7.947 .792 7.947 1.777H8.41C8.396 1.27 8.365 .747 8.365 .224 8.365-.135 8.396-.941 8.41-1.419H7.947C7.947-.418 7.947-.254 7.274-.254H3.257C2.524-.254 2.435-.389 2.435-1.359H1.972L1.808 .732Z" fill="#231f20"/>
<path transform="matrix(1,0,0,-1,193.4038,106.75391)" d="M0 0V.313H.463C.418-.284 .418-.986 .418-1.584 .418-2.002 .448-2.704 .463-3.287H0C0-2.286 0-2.122-.673-2.122H-4.676C-5.408-2.122-5.513-2.241-5.513-3.287H-5.976L-6.14-1.21H-4.497C-5.139-1.001-6.14-.464-6.14 .627-6.14 1.27-5.707 1.732-5.229 1.732-4.751 1.732-4.571 1.359-4.571 1.09-4.571 .762-4.795 .448-5.214 .448-5.602 .448-5.781 .746-5.797 .791-5.811 .762-5.811 .731-5.811 .627-5.811-.508-4.481-1.136-3.003-1.136H-.702C-.164-1.136 0-1.105 0 0" fill="#231f20"/>
<path transform="matrix(1,0,0,-1,193.4038,100.8857)" d="M0 0V.313H.463C.418-.284 .418-.986 .418-1.584 .418-2.002 .448-2.704 .463-3.287H0C0-2.286 0-2.122-.673-2.122H-4.676C-5.408-2.122-5.513-2.241-5.513-3.287H-5.976L-6.14-1.21H-4.497C-5.139-1.001-6.14-.464-6.14 .627-6.14 1.27-5.707 1.732-5.229 1.732-4.751 1.732-4.571 1.359-4.571 1.09-4.571 .762-4.795 .448-5.214 .448-5.602 .448-5.781 .746-5.797 .791-5.811 .762-5.811 .731-5.811 .627-5.811-.508-4.481-1.136-3.003-1.136H-.702C-.164-1.136 0-1.105 0 0" fill="#231f20"/>
<path transform="matrix(1,0,0,-1,192.5522,93.2549)" d="M0 0C-.657 .328-1.464 .328-2.002 .328-2.569 .328-3.436 .328-4.078-.061-4.721-.448-5.049-1.091-5.049-1.748-5.049-2.346-4.735-3.048-4.049-3.451-3.392-3.81-2.584-3.81-2.002-3.81-1.464-3.81-.553-3.81 .104-3.437 .792-3.033 1.105-2.376 1.105-1.733 1.105-.986 .672-.329 0 0M1.479-1.748C1.479-3.496 .045-5.05-1.883-5.05-3.75-5.05-5.378-3.601-5.378-1.733-5.378 .074-3.795 1.568-1.883 1.568 .015 1.568 1.479 .06 1.479-1.748" fill="#231f20"/>
<path transform="matrix(1,0,0,-1,193.4038,87.60159)" d="M0 0V.313H.463C.418-.284 .418-.986 .418-1.584 .418-2.002 .448-2.704 .463-3.287H0C0-2.286 0-2.122-.673-2.122H-4.676C-5.408-2.122-5.513-2.241-5.513-3.287H-5.976L-6.14-1.21H-4.497C-5.139-1.001-6.14-.464-6.14 .627-6.14 1.27-5.707 1.732-5.229 1.732-4.751 1.732-4.571 1.359-4.571 1.09-4.571 .762-4.795 .448-5.214 .448-5.602 .448-5.781 .746-5.797 .791-5.811 .762-5.811 .731-5.811 .627-5.811-.508-4.481-1.136-3.003-1.136H-.702C-.164-1.136 0-1.105 0 0" fill="#231f20"/>
<path transform="matrix(1,0,0,-1,73.5259,252.0132)" d="M0 0-8.41 3.271C-8.679 3.376-8.694 3.376-8.694 3.765V6.289H-8.231V5.931C-8.231 4.78-8.067 4.75-7.528 4.75H.344C.882 4.75 1.046 4.78 1.046 5.931V6.289H1.509C1.464 5.736 1.464 4.735 1.464 4.152 1.464 3.57 1.464 2.555 1.509 2.002H1.046V2.36C1.046 3.511 .882 3.54 .344 3.54H-8.231V3.525L1.225-.149C1.39-.209 1.509-.254 1.509-.418 1.509-.567 1.374-.643 1.18-.717L-8.111-4.317V-4.332H-.06C.344-4.332 1.046-4.332 1.046-2.794H1.509C1.494-3.316 1.464-4.048 1.464-4.541 1.464-5.034 1.494-5.767 1.509-6.289H1.046C1.046-4.75 .344-4.75-.06-4.75H-7.528C-8.067-4.75-8.231-4.78-8.231-5.931V-6.289H-8.694V-3.765C-8.694-3.421-8.694-3.376-8.365-3.241Z" fill="#231f20"/>
<path transform="matrix(1,0,0,-1,71.27,239.9614)" d="M0 0C-.582 0-2.599-.149-2.599-1.688-2.599-2.196-2.226-3.451 0-3.541ZM.313-3.556C.852-3.556 1.838-3.556 2.555-3.107 3.107-2.764 3.556-2.166 3.556-1.42 3.556-1.271 3.556 .074 2.017 .597 1.897 .627 1.808 .657 1.808 .791 1.808 .866 1.838 .985 1.987 .985 2.271 .985 3.929 .313 3.929-1.509 3.929-3.228 2.479-4.796 .479-4.796-1.389-4.796-2.928-3.421-2.928-1.688-2.928 .179-1.479 .985 0 .985 .313 .985 .313 .94 .313 .612Z" fill="#231f20"/>
<path transform="matrix(1,0,0,-1,75.7817,227.4478)" d="M0 0C.209 0 .493 0 .493-.299 .493-.597 .209-.597 0-.597H-4.183V-4.78C-4.183-4.989-4.183-5.272-4.481-5.272-4.78-5.272-4.78-4.989-4.78-4.78V-.597H-8.964C-9.173-.597-9.456-.597-9.456-.299-9.456 0-9.173 0-8.964 0H-4.78V4.168C-4.78 4.377-4.78 4.661-4.481 4.661-4.183 4.661-4.183 4.377-4.183 4.168V0Z" fill="#231f20"/>
<path transform="matrix(1,0,0,-1,73.8989,214.3042)" d="M0 0C.673 0 .673 .164 .673 1.165H1.136C1.121 .612 1.091-.12 1.091-.493 1.091-.867 1.121-1.658 1.136-2.151H.673C.673-1.15 .673-.986 0-.986H-7.768C-8.499-.986-8.604-1.105-8.604-2.151H-9.067L-9.231 0Z" fill="#231f20"/>
<path transform="matrix(1,0,0,-1,73.6011,211.0054)" d="M0 0C.746 0 1.27 .613 1.27 1.345 1.27 2.017 .762 3.093-.658 3.093H-2.151C-2.062 .628-.822 0 0 0M1.598 1.24C1.598 .299 1.225-1.15 .015-1.15-.643-1.15-1.42-.776-1.928 .344-2.376 1.285-2.421 2.331-2.465 3.093H-3.018C-4.348 3.093-4.93 2.241-4.93 1.509-4.93 1.031-4.766 .299-4.243-.104-4.229 .583-3.735 .657-3.556 .657-3.167 .657-2.869 .389-2.869-.029-2.869-.418-3.123-.717-3.57-.717-4.557-.717-5.259 .314-5.259 1.539-5.259 2.256-5.02 3.003-4.437 3.586-3.885 4.123-3.302 4.123-2.675 4.123H.313C.388 4.123 1.061 4.183 1.061 4.676 1.061 4.841 .971 5.214 .104 5.214H-.732V5.587H.104C1.314 5.587 1.523 4.676 1.523 4.362 1.523 3.66 .896 3.257 .298 3.197 1 2.913 1.598 2.227 1.598 1.24" fill="#231f20"/>
<path transform="matrix(1,0,0,-1,69.0591,204.8179)" d="M0 0H-.463L-.627 2.105H.941C.015 2.524-.627 3.227-.627 4.316-.627 4.989-.463 6.095 .837 6.304 .269 6.558-.627 7.215-.627 8.47-.627 9.336-.329 9.829-.074 10.038 .464 10.501 .927 10.501 2.211 10.501H5.064C5.513 10.516 5.513 10.89 5.513 11.666H5.976C5.961 11.158 5.931 10.382 5.931 9.993 5.931 9.59 5.961 8.828 5.976 8.306H5.513C5.513 9.306 5.513 9.471 4.84 9.471H1.359C.509 9.471-.298 9.306-.298 8.365-.298 7.409 .538 6.349 2.092 6.349H4.84C5.513 6.349 5.513 6.513 5.513 7.514H5.976C5.961 7.006 5.931 6.229 5.931 5.841 5.931 5.437 5.961 4.675 5.976 4.152H5.513C5.513 5.153 5.513 5.317 4.84 5.317H1.359C.509 5.317-.298 5.153-.298 4.212-.298 3.256 .538 2.195 2.092 2.195H4.84C5.513 2.195 5.513 2.359 5.513 3.36H5.976C5.961 2.853 5.931 2.076 5.931 1.687 5.931 1.284 5.961 .522 5.976 0H5.513C5.513 1 5.513 1.165 4.84 1.165H.837C.104 1.165 0 1.045 0 0" fill="#231f20"/>
<path transform="matrix(1,0,0,-1,73.3315,190.21341)" d="M0 0C.299 0 .313 0 .628 .209 1.24 .612 1.539 1.18 1.539 1.777 1.539 2.883 .284 3.929-1.523 3.929-3.212 3.929-4.526 3.018-4.526 1.927-4.526 1.165-4.093 .434-3.331 0ZM.956 0H3.466C4.138 0 4.138 .164 4.138 1.165H4.602C4.586 .643 4.557-.119 4.557-.522 4.557-.911 4.586-1.688 4.602-2.196H4.138C4.138-1.195 4.138-1.031 3.466-1.031H-3.525C-4.183-1.031-4.272-1.136-4.272-2.196H-4.735L-4.899-.045H-3.914C-4.242 .254-4.899 .881-4.899 2.047-4.899 3.72-3.421 5.169-1.523 5.169 .403 5.169 1.867 3.615 1.867 1.837 1.867 .702 1.061 .074 .821 0Z" fill="#231f20"/>
<path transform="matrix(1,0,0,-1,179.4106,12.691895)" stroke-width="1" stroke-linecap="butt" stroke-miterlimit="10" stroke-linejoin="miter" fill="none" stroke="#00b400" d="M0 0V-302.231"/>
<path transform="matrix(1,0,0,-1,179.4106,14.486786)" d="M0 0 3.604-2.191 3.685-2.068 1.352 3.807C.9 5.854 .451 7.9 0 9.947-.45 7.9-.9 5.854-1.352 3.807L-3.685-2.068-3.623-2.191Z" fill="#00b400"/>
<path transform="matrix(1,0,0,-1,183.2866,172.6865)" d="M0 0C-1.07-2.14-3.673-3.008-5.813-1.937-7.955-.867-8.822 1.736-7.752 3.877-6.682 6.018-4.079 6.885-1.938 5.814 .202 4.744 1.07 2.141 0 0"/>
</g>
</g>
</svg>
